# xmcd CD database file
#
# Track frame offsets:
#	187
#	16025
#	35705
#	61197
#	77490
#	101247
#	119142
#	136017
#	159882
#	184085
#	203957
#
# Disc length: 2941 seconds
#
# Revision: 0
# Processed by: cddbd v1.5.1PL0 Copyright (c) Steve Scherf et al.
# Submitted via: CDex 1.51
#
DISCID=8b0b7b0b
DTITLE=羽田健太郎 - POEM JAPANESQUE 2
DYEAR=1996
DGENRE=Pop
TTITLE0=顔と心はうらおもて
TTITLE1=おだやかな優越感
TTITLE2=淡き想い
TTITLE3=故郷を忘れたキザ男
TTITLE4=夏祭りの夜
TTITLE5=同窓会にて
TTITLE6=きっと、来る…
TTITLE7=秋霖
TTITLE8=おばあちゃんの星占い
TTITLE9=流氷のプレリュード
TTITLE10=そして、今わたしは…
EXTD=YEAR: 1996
EXTT0=
EXTT1=
EXTT2=
EXTT3=
EXTT4=
EXTT5=
EXTT6=
EXTT7=
EXTT8=
EXTT9=
EXTT10=
PLAYORDER=
